<svg width="64" height="64" viewBox="0 0 64 64" fill="none" xmlns="http://www.w3.org/2000/svg">
<path d="M60.3999 38.3733L31.9999 59.0133L3.5999 38.3733C3.21916 38.0933 2.93675 37.7001 2.79306 37.2498C2.64936 36.7996 2.65176 36.3154 2.7999 35.8667L6.05323 25.7867L12.5599 5.75999C12.623 5.59681 12.7235 5.45068 12.8532 5.33332C13.0645 5.14031 13.3404 5.03329 13.6266 5.03329C13.9128 5.03329 14.1886 5.14031 14.3999 5.33332C14.5369 5.46576 14.6379 5.63097 14.6932 5.81332L21.1999 25.7867H42.7999L49.3066 5.75999C49.3697 5.59681 49.4701 5.45068 49.5999 5.33332C49.8112 5.14031 50.087 5.03329 50.3732 5.03329C50.6594 5.03329 50.9353 5.14031 51.1466 5.33332C51.2836 5.46576 51.3846 5.63097 51.4399 5.81332L57.9466 25.84L61.3332 35.8667C61.468 36.3293 61.4499 36.823 61.2818 37.2746C61.1136 37.7262 60.8044 38.1115 60.3999 38.3733Z" fill="black"/>
<path d="M15.25 40.0215L11.1962 21L27.1603 40.6506L15.25 40.0215Z" fill="yellow"/>
<path d="M49.0703 40.0215L53.1242 21L37.1601 40.6506L49.0703 40.0215Z" fill="yellow"/>

</svg>
